<svg xmlns="http://www.w3.org/2000/svg" width="1600" height="1158" viewBox="0 0 1600 1158">
    <g fill="none" fill-rule="evenodd" stroke="#FF6565" stroke-linecap="square">
        <path d="M.555 578L1599.445 578M.555 622.462L1599.445 533.538M0 666.923L1598.89 489.077M0 711.385L1598.89 444.615M0 755.846L1598.89 400.154M0 800.308L1598.89 355.692M0 844.769L1598.89 311.231M0 889.231L1598.89 266.769M0 933.692L1598.89 222.308M0 978.154L1598.89 177.846M0 1022.615L1598.89 133.385M0 1067.077L1598.89 88.923M0 1111.538L1598.89 44.462M0 1156L1598.89 0" transform="translate(0 1)"/>
        <g>
            <path d="M.555 622.462L1599.445 533.538M0 666.923L1598.89 489.077M0 711.385L1598.89 444.615M0 755.846L1598.89 400.154M0 800.308L1598.89 355.692M0 844.769L1598.89 311.231M0 889.231L1598.89 266.769M0 933.692L1598.89 222.308M0 978.154L1598.89 177.846M0 1022.615L1598.89 133.385M0 1067.077L1598.89 88.923M0 1111.538L1598.89 44.462M0 1156L1598.89 0" transform="translate(0 1) matrix(-1 0 0 1 1600 0)"/>
        </g>
    </g>
</svg>
