<?xml version="1.0" encoding="UTF-8"?>
<svg width="91px" height="91px" viewBox="0 0 91 91" version="1.1" xmlns="http://www.w3.org/2000/svg" xmlns:xlink="http://www.w3.org/1999/xlink">
    <title>Combined Shape</title>
    <g id="Design_KR" stroke="none" stroke-width="1" fill="none" fill-rule="evenodd">
        <g id="DT_WEB_1_INDEX_DESKTOP_KR-2560px" transform="translate(-1389.000000, -28055.000000)" fill="#000046">
            <g id="Group-5" transform="translate(0.000000, 23523.000000)">
                <g id="06_Contact" transform="translate(0.000000, 2884.000000)">
                    <g id="FOOTER" transform="translate(888.000000, 1639.000000)">
                        <g id="icon_brunch" transform="translate(492.000000, 0.000000)">
                            <path d="M54.4,9.6 C79.1423568,9.6 99.2,29.6576432 99.2,54.4 C99.2,79.1423568 79.1423568,99.2 54.4,99.2 C29.6576432,99.2 9.6,79.1423568 9.6,54.4 C9.6,29.6576432 29.6576432,9.6 54.4,9.6 Z M72,78.6861092 L38.2881356,78.6861092 L38.2881356,80 L72,80 L72,78.6861092 Z M69.3559322,24.1596414 C61.5049788,29.3563532 56.1355932,39.2693855 56.1355932,39.2693855 C53.7226881,43.1595779 49.7741782,49.9351268 45.8154191,56.8225035 L45.0734041,58.11452 C42.2314078,63.067082 39.4333668,67.9878639 37.2456568,71.8470339 C35.7005297,71.8470339 33.6610169,70.1458191 33.6610169,70.1458191 C34.4211864,72.1166553 36.4799788,73.178717 36.4799788,73.178717 C34.3716102,76.9041448 33,79.3430546 33,79.3430546 L37.6271186,77.3722184 C38.1504237,76.0665394 38.6985169,74.7882332 39.2686441,73.5414056 C58.374678,72.9698631 64.261219,61.8901374 64.7015726,61.0046738 L64.7271374,60.9521594 C64.7282578,60.9497833 64.7288136,60.9485835 64.7288136,60.9485835 C68.4610766,54.0828102 63.9720818,52.5698647 63.4544335,52.4211837 L63.4190174,52.4114099 C63.410967,52.4092968 63.4067797,52.4082934 63.4067797,52.4082934 C56.8475636,50.611274 45.9476695,61.3892844 45.9476695,61.3892844 C51.6587415,52.5080083 57.2892628,46.6730723 58.5274658,45.4303942 L58.6653282,45.2928696 C58.6777143,45.2805979 58.6891093,45.2693342 58.6994996,45.2590833 L58.7496747,45.2097707 C58.7686241,45.1912305 58.7782839,45.181894 58.7782839,45.181894 C62.4606992,41.5437167 61.2182154,39.7455853 60.8500567,39.352899 L60.8097402,39.3118097 C60.7804418,39.283373 60.7627119,39.2693855 60.7627119,39.2693855 C70.9590819,32.9654469 71.3353352,26.9834117 71.3401851,26.2138245 L71.3400274,26.1677847 C71.3399384,26.1616108 71.3398286,26.1561922 71.339714,26.1515371 L71.3390962,26.132834 C71.3390261,26.1312658 71.3389831,26.1304776 71.3389831,26.1304776 C71.3389831,23.1673801 69.3559322,24.1596414 69.3559322,24.1596414 Z M62.0847458,56.8467807 L62.084168,56.8837838 C62.0804124,57.0411149 62.0522458,57.6803714 61.8409958,58.4193438 C60.8880297,61.7615535 55.9717161,71.0532249 39.9351695,72.1166553 C39.9351695,72.1166553 45.6901483,61.601423 57.4576271,55.036075 C57.4576271,55.036075 62.0847458,52.3713402 62.0847458,56.8467807 Z M58.1186441,39.9263309 C59.9844824,40.6567134 58.3318827,42.3458474 58.1369217,42.5365063 L58.1186441,42.5541124 L58.1186441,42.5541124 C57.8249735,42.8719782 57.4302569,43.2772656 57.0033716,43.7063972 L56.6782523,44.0317233 C55.4719242,45.2336937 54.1525424,46.4957848 54.1525424,46.4957848 C55.9909958,42.860687 58.1186441,39.9263309 58.1186441,39.9263309 Z M68.6949153,26.787423 C68.6949153,26.787423 68.6744207,26.8535424 68.6293151,26.9780045 L68.5845299,27.098793 C68.0744856,28.4459307 65.6698646,33.9162326 58.7782839,38.6124401 C58.7782839,38.6124401 63.7951271,31.087678 68.6949153,26.787423 Z" id="Combined-Shape"></path>
                        </g>
                    </g>
                </g>
            </g>
        </g>
    </g>
</svg>