<?xml version="1.0" encoding="UTF-8"?>
<svg width="360px" height="360px" viewBox="0 0 360 360" version="1.1" xmlns="http://www.w3.org/2000/svg" xmlns:xlink="http://www.w3.org/1999/xlink">
    <!-- Generator: Sketch 63.1 (92452) - https://sketch.com -->
    <title>Main1_wave</title>
    <desc>Created with Sketch.</desc>
    <defs>
        <polygon id="path-1" points="0 0.573 175.3295 0.573 175.3295 250.999332 0 250.999332"></polygon>
        <path d="M91.531,0.577 C74.228,0.76 59.118,6.816 46.614,17.293 L46.614,17.293 C72.194,39.018 87.169,79.673 87.169,125.793 L87.169,125.793 C87.169,194.94 54.425,250.995 0.908,250.995 L0.908,250.995 L89.975,250.995 C140.758,250.944 176.195,194.94 176.237036,125.793 L176.237036,125.793 C176.277,57.439 142.736,0.582 91.749,0.577 L91.749,0.577 C91.675,0.577 91.606,0.577 91.531,0.577" id="path-3"></path>
        <linearGradient x1="94.0387668%" y1="50.0001231%" x2="16.3373011%" y2="50.0001231%" id="linearGradient-5">
            <stop stop-color="#FFB1B1" offset="0%"></stop>
            <stop stop-color="#FD8C8C" offset="100%"></stop>
        </linearGradient>
        <polygon id="path-6" points="0.7753 0.7704 100.806 0.7704 100.806 100.8024 0.7753 100.8024"></polygon>
    </defs>
    <g id="Main1_wave" stroke="none" stroke-width="1" fill="none" fill-rule="evenodd">
        <rect id="Container" x="0" y="0" width="360" height="360"></rect>
        <g id="Group" transform="translate(30.000000, 54.427000)">
            <g id="Group-6" transform="translate(0.000000, 0.000000)">
                <path d="M50.1542,125.7864 C50.1542,98.1634 72.5472,75.7704 100.1702,75.7704 C127.7922,75.7704 150.1852,98.1634 150.1852,125.7864 C150.1852,153.4094 127.7922,175.8024 100.1702,175.8024 C72.5472,175.8024 50.1542,153.4094 50.1542,125.7864" id="Fill-1" fill="#202040"></path>
                <g id="Group-5">
                    <mask id="mask-2" fill="white">
                        <use xlink:href="#path-1"></use>
                    </mask>
                    <g id="Clip-4"></g>
                    <path d="M175.3295,250.9534 C123.3405,252.2914 89.0675,194.9224 89.0675,125.7744 C89.0675,56.6274 121.8125,0.5794 175.3295,0.5794 L86.2615,0.5724 C32.7445,0.5724 -0.0005,56.6274 -0.0005,125.7744 C-0.0005,194.9224 34.2735,252.3144 86.2615,250.9764 L175.3295,250.9534 Z" id="Fill-3" fill="#FE6565" mask="url(#mask-2)"></path>
                </g>
            </g>
            <g id="Group-9" transform="translate(83.000000, 0.000000)">
                <mask id="mask-4" fill="white">
                    <use xlink:href="#path-3"></use>
                </mask>
                <g id="Clip-8"></g>
                <path d="M91.531,0.577 C74.228,0.76 59.118,6.816 46.614,17.293 L46.614,17.293 C72.194,39.018 87.169,79.673 87.169,125.793 L87.169,125.793 C87.169,194.94 54.425,250.995 0.908,250.995 L0.908,250.995 L89.975,250.995 C140.758,250.944 176.195,194.94 176.237036,125.793 L176.237036,125.793 C176.277,57.439 142.736,0.582 91.749,0.577 L91.749,0.577 C91.675,0.577 91.606,0.577 91.531,0.577" id="Fill-7" fill="url(#linearGradient-5)" mask="url(#mask-4)"></path>
            </g>
            <g id="Group-15" transform="translate(199.000000, 75.000000)">
                <g id="Group-12">
                    <mask id="mask-7" fill="white">
                        <use xlink:href="#path-6"></use>
                    </mask>
                    <g id="Clip-11"></g>
                    <path d="M0.7753,50.7864 C0.7753,23.1634 23.1683,0.7704 50.7913,0.7704 C78.4133,0.7704 100.8063,23.1634 100.8063,50.7864 C100.8063,78.4094 78.4133,100.8024 50.7913,100.8024 C23.1683,100.8024 0.7753,78.4094 0.7753,50.7864" id="Fill-10" fill="#545493" mask="url(#mask-7)"></path>
                </g>
                <path d="M0.7753,50.7864 C0.7753,78.4094 23.1683,100.8024 50.7913,100.8024 C51.8593,100.8024 52.9173,100.7574 53.9693,100.6904 C58.0763,85.4014 60.2363,68.5304 60.2363,50.7924 C60.2363,33.1204 57.9923,16.2204 53.7913,0.8684 C52.7973,0.8094 51.7983,0.7704 50.7913,0.7704 C23.1683,0.7704 0.7753,23.1634 0.7753,50.7864" id="Fill-13" fill="#202040"></path>
            </g>
        </g>
    </g>
</svg>