<?xml version="1.0" encoding="UTF-8"?>
<svg width="40px" height="40px" viewBox="0 0 40 40" version="1.1" xmlns="http://www.w3.org/2000/svg" xmlns:xlink="http://www.w3.org/1999/xlink">
    <title>icon_brunch</title>
    <g id="Design_KR" stroke="none" stroke-width="1" fill="none" fill-rule="evenodd">
        <g id="DT_WEB_2_MENU_DESKTOP_KR" transform="translate(-216.000000, -345.000000)">
            <g id="Information" transform="translate(60.000000, 345.000000)">
                <g id="icon_brunch" transform="translate(156.000000, 0.000000)">
                    <g id="placeholder">
                        <rect id="Rectangle" x="0" y="0" width="40" height="40"></rect>
                    </g>
                    <path d="M20.1481481,3.55555556 C29.311984,3.55555556 36.7407407,10.9843123 36.7407407,20.1481481 C36.7407407,29.311984 29.311984,36.7407407 20.1481481,36.7407407 C10.9843123,36.7407407 3.55555556,29.311984 3.55555556,20.1481481 C3.55555556,10.9843123 10.9843123,3.55555556 20.1481481,3.55555556 Z M26.6666667,29.1430034 L14.180791,29.1430034 L14.180791,29.6296296 L26.6666667,29.6296296 L26.6666667,29.1430034 Z M25.6873823,8.94801532 C22.7796218,10.8727234 20.7909605,14.5442168 20.7909605,14.5442168 C19.1991133,17.1106632 15.8027307,23.0677792 13.7946877,26.6100126 C13.2224184,26.6100126 12.4670433,25.979933 12.4670433,25.979933 C12.7485876,26.7098723 13.5111033,27.1032285 13.5111033,27.1032285 C12.730226,28.4830166 12.2222222,29.3863165 12.2222222,29.3863165 L13.9359699,28.6563772 C14.1297866,28.1727924 14.3327841,27.6993456 14.5439422,27.2375576 C21.6609195,27.0246587 23.8253495,22.8749767 23.9661581,22.5890449 L23.9736347,22.5735495 L23.9736347,22.5735495 C25.4384809,19.8788568 23.4839925,19.410479 23.4839925,19.410479 C21.1650777,18.7751691 17.3813336,22.3834988 17.042148,22.7128414 L17.0176554,22.736772 L17.0176554,22.736772 C19.1207283,19.4662877 21.194309,17.3111647 21.6687833,16.8341639 L21.7531788,16.7502002 C21.7641264,16.7394555 21.7697348,16.7340348 21.7697348,16.7340348 C23.2209329,15.3002704 22.6069934,14.6380848 22.5154099,14.5535682 L22.5047081,14.5442168 L22.5047081,14.5442168 C26.2065311,12.2555529 26.4135685,10.081448 26.4219963,9.72796457 L26.4218456,9.67795465 L26.4218456,9.67795465 C26.4218456,8.58051115 25.6873823,8.94801532 25.6873823,8.94801532 Z M22.9943503,21.0543632 C22.9943503,21.0543632 22.9943503,21.3209938 22.9040725,21.636794 C22.5511221,22.8746494 20.7302652,26.3160092 14.7908035,26.7098723 C14.7908035,26.7098723 16.9222772,22.8153419 21.2806026,20.3837315 C21.2806026,20.3837315 22.9943503,19.3967927 22.9943503,21.0543632 Z M21.5254237,14.7875299 C22.1426306,15.0291356 21.7203312,15.5539999 21.571586,15.7137232 L21.5254237,15.7607824 L21.5254237,15.7607824 C21.4230549,15.8715853 21.287535,16.0110694 21.140132,16.1596032 L20.9127736,16.3867373 C20.4893586,16.8065955 20.0564972,17.220661 20.0564972,17.220661 C20.7374058,15.8743285 21.5254237,14.7875299 21.5254237,14.7875299 Z M25.4425612,9.92126776 C25.4425612,9.92126776 24.7050377,12.3006672 21.7697348,14.3009037 C21.7697348,14.3009037 23.6278249,11.5139548 25.4425612,9.92126776 Z" id="Oval-2" fill="#FFFFFF"></path>
                </g>
            </g>
        </g>
    </g>
</svg>