<?xml version="1.0" encoding="UTF-8"?>
<svg width="360px" height="360px" viewBox="0 0 360 360" version="1.1" xmlns="http://www.w3.org/2000/svg" xmlns:xlink="http://www.w3.org/1999/xlink">
    <!-- Generator: Sketch 63.1 (92452) - https://sketch.com -->
    <title>Main2_spot</title>
    <desc>Created with Sketch.</desc>
    <defs>
        <polygon id="path-1" points="0.4817 0.6636 174.968 0.6636 174.968 188.9996 0.4817 188.9996"></polygon>
        <path d="M0,23.78 L0,189.009 C23.279,174.503 52.646,165.9 87.248,165.9 L87.248,165.9 C121.845,165.9 151.071,174.054 174.488,188.917 L174.488,188.917 L174.488,23.689 C151.071,8.827 121.845,0.672 87.248,0.672 L87.248,0.672 C52.646,0.672 23.279,9.275 0,23.78" id="path-3"></path>
        <linearGradient x1="99.9995578%" y1="49.9998784%" x2="1.08213204%" y2="49.9998784%" id="linearGradient-5">
            <stop stop-color="#FD8C8C" offset="0%"></stop>
            <stop stop-color="#FFB1B1" offset="100%"></stop>
        </linearGradient>
        <polygon id="path-6" points="0.1311 0.063 92.3561 0.063 92.3561 136.9145 0.1311 136.9145"></polygon>
    </defs>
    <g id="Main2_spot" stroke="none" stroke-width="1" fill="none" fill-rule="evenodd">
        <rect id="Container" x="0" y="0" width="360" height="360"></rect>
        <g id="Group" transform="translate(30.000000, 37.937000)">
            <g id="Group-6" transform="translate(125.000000, 96.000000)">
                <path d="M25.1337,33.8491 C25.4667,33.8471 25.7967,33.8381 26.1277,33.8321 L23.8387,33.8321 C24.2697,33.8411 24.7007,33.8481 25.1337,33.8491" id="Fill-1" fill="#FFC5C5"></path>
                <g id="Group-5">
                    <mask id="mask-2" fill="white">
                        <use xlink:href="#path-1"></use>
                    </mask>
                    <g id="Clip-4"></g>
                    <path d="M174.9687,165.8916 C151.6907,180.3976 122.3217,188.9996 87.7207,188.9996 C53.1237,188.9996 23.8967,180.8456 0.4817,165.9836 L0.4817,0.7556 C23.8967,15.6176 53.1237,23.7726 87.7207,23.7726 C122.3217,23.7726 151.6907,15.1696 174.9687,0.6636 L174.9687,165.8916 Z" id="Fill-3" fill="#FE6565" mask="url(#mask-2)"></path>
                </g>
            </g>
            <g id="Group-9" transform="translate(0.000000, 54.000000)">
                <mask id="mask-4" fill="white">
                    <use xlink:href="#path-3"></use>
                </mask>
                <g id="Clip-8"></g>
                <path d="M0,23.78 L0,189.009 C23.279,174.503 52.646,165.9 87.248,165.9 L87.248,165.9 C121.845,165.9 151.071,174.054 174.488,188.917 L174.488,188.917 L174.488,23.689 C151.071,8.827 121.845,0.672 87.248,0.672 L87.248,0.672 C52.646,0.672 23.279,9.275 0,23.78" id="Fill-7" fill="url(#linearGradient-5)" mask="url(#mask-4)"></path>
            </g>
            <g id="Group-17" transform="translate(41.000000, 0.000000)">
                <g id="Group-12">
                    <mask id="mask-7" fill="white">
                        <use xlink:href="#path-6"></use>
                    </mask>
                    <g id="Clip-11"></g>
                    <path d="M46.2441,136.9145 L86.8341,68.0665 C90.4481,61.3765 92.3561,53.8085 92.3561,46.1755 C92.3561,20.7495 71.6701,0.0625 46.2441,0.0625 C20.8171,0.0625 0.1311,20.7495 0.1311,46.1755 C0.1311,53.8085 2.0391,61.3765 5.6671,68.0895 L46.2441,136.9145 Z" id="Fill-10" fill="#545493" mask="url(#mask-7)"></path>
                </g>
                <path d="M90.3407,59.6601 C76.7977,56.3821 62.0827,54.6721 46.2477,54.6721 C30.4447,54.6721 15.7297,56.4671 2.1907,59.7991 C3.0727,62.6561 4.2397,65.4491 5.6667,68.0891 L46.2437,136.9141 L86.8337,68.0661 C88.2777,65.3941 89.4537,62.5601 90.3407,59.6601" id="Fill-13" fill="#202040"></path>
                <path d="M84.4814,261.9624 L133.4864,242.9164 C119.2664,233.8904 102.8884,227.3354 84.4814,223.5814 L84.4814,261.9624 Z" id="Fill-15" fill="#202040"></path>
            </g>
        </g>
    </g>
</svg>